<svg width="10" height="10" viewBox="0 0 10 10" fill="none" xmlns="http://www.w3.org/2000/svg">
<path d="M6.66667 10C5.57407 10 4.60185 9.68982 3.75 9.06945C2.89815 8.44907 2.2963 7.64815 1.94444 6.66667H0V5.55556H1.69444C1.66667 5.33333 1.65509 5.12732 1.65972 4.9375C1.66435 4.74769 1.67593 4.58333 1.69444 4.44444H0V3.33333H1.94444C2.2963 2.35185 2.89815 1.55093 3.75 0.930556C4.60185 0.310185 5.57407 0 6.66667 0C7.30556 0 7.90972 0.113426 8.47917 0.340278C9.04861 0.56713 9.55556 0.87963 10 1.27778L9.20833 2.05556C8.86574 1.75926 8.47917 1.52778 8.04861 1.36111C7.61806 1.19444 7.15741 1.11111 6.66667 1.11111C5.87963 1.11111 5.17593 1.31713 4.55556 1.72917C3.93519 2.1412 3.46759 2.67593 3.15278 3.33333H6.66667V4.44444H2.81944C2.78241 4.69444 2.76852 4.91435 2.77778 5.10417C2.78704 5.29398 2.80093 5.44444 2.81944 5.55556H6.66667V6.66667H3.15278C3.46759 7.32407 3.93519 7.8588 4.55556 8.27083C5.17593 8.68287 5.87963 8.88889 6.66667 8.88889C7.15741 8.88889 7.61806 8.80556 8.04861 8.63889C8.47917 8.47222 8.86574 8.24074 9.20833 7.94445L10 8.72222C9.55556 9.12037 9.04861 9.43287 8.47917 9.65972C7.90972 9.88657 7.30556 10 6.66667 10Z" fill="#9D9D9D"/>
</svg>
