<svg width="186" height="67" viewBox="0 0 186 67" fill="none" xmlns="http://www.w3.org/2000/svg">
<path d="M15.156 28.504C7.74 28.504 1.872 23.824 1.872 14.752C1.872 5.824 7.884 0.711999 15.048 0.711999C18.972 0.711999 21.78 2.368 23.616 4.204L20.232 8.308C18.9 7.12 17.496 6.22 15.264 6.22C11.304 6.22 8.46 9.316 8.46 14.536C8.46 19.864 10.836 22.96 15.84 22.96C16.776 22.96 17.784 22.708 18.36 22.276V17.956H14.112V12.7H24.084V25.228C22.212 27.028 18.9 28.504 15.156 28.504ZM25.4815 28L33.7975 1.18H41.5015L49.8175 28H43.0495L39.7015 14.608C38.9815 11.944 38.2975 8.74 37.5775 6.004H37.4335C36.7855 8.812 36.0655 11.944 35.3815 14.608L32.0335 28H25.4815ZM31.1335 21.844V16.876H44.0935V21.844H31.1335ZM52.6312 28V1.18H59.5792L63.8272 12.772C64.3672 14.32 64.7992 16.012 65.3032 17.632H65.4832C66.0232 16.012 66.4552 14.32 66.9592 12.772L71.0632 1.18H78.0472V28H72.1792V18.82C72.1792 16.156 72.6832 12.16 73.0432 9.532H72.8632L70.6312 15.94L67.0312 25.732H63.5032L59.8672 15.94L57.7072 9.532H57.5632C57.8872 12.16 58.3912 16.156 58.3912 18.82V28H52.6312ZM92.5175 28.504C89.0255 28.504 85.2815 27.208 82.5095 24.652L86.1815 20.224C88.0535 21.844 90.5375 22.96 92.6615 22.96C95.0375 22.96 96.1535 22.06 96.1535 20.62C96.1535 19.072 94.6775 18.568 92.3735 17.596L88.9535 16.156C86.1455 15.04 83.5175 12.7 83.5175 8.812C83.5175 4.312 87.5495 0.711999 93.2375 0.711999C96.3335 0.711999 99.6095 1.9 101.949 4.24L98.7455 8.272C96.9815 6.94 95.3255 6.22 93.2375 6.22C91.2575 6.22 90.0695 7.012 90.0695 8.416C90.0695 9.928 91.7255 10.504 94.1015 11.44L97.4495 12.772C100.761 14.104 102.741 16.336 102.741 20.116C102.741 24.58 98.9975 28.504 92.5175 28.504ZM117.922 28.504C110.758 28.504 107.05 24.436 107.05 15.4V1.18H113.458V16.084C113.458 21.16 114.97 22.96 117.922 22.96C120.838 22.96 122.458 21.16 122.458 16.084V1.18H128.65V15.4C128.65 24.436 125.05 28.504 117.922 28.504ZM134.651 28V1.18H141.203L147.863 14.032L150.491 19.972H150.671C150.347 17.128 149.807 13.276 149.807 10.072V1.18H155.927V28H149.375L142.751 15.076L140.123 9.208H139.943C140.231 12.196 140.771 15.868 140.771 19.108V28H134.651ZM174.203 28.504C166.787 28.504 160.919 23.824 160.919 14.752C160.919 5.824 166.931 0.711999 174.095 0.711999C178.019 0.711999 180.827 2.368 182.663 4.204L179.279 8.308C177.947 7.12 176.543 6.22 174.311 6.22C170.351 6.22 167.507 9.316 167.507 14.536C167.507 19.864 169.883 22.96 174.887 22.96C175.823 22.96 176.831 22.708 177.407 22.276V17.956H173.159V12.7H183.131V25.228C181.259 27.028 177.947 28.504 174.203 28.504Z" fill="black"/>
<path d="M54.04 66.56C46.48 66.56 40.08 61.36 40.08 51.28C40.08 41.36 46.72 35.68 54.28 35.68C58.16 35.68 61.28 37.48 63.32 39.56L59.6 44.12C58.08 42.76 56.52 41.8 54.4 41.8C50.56 41.8 47.4 45.24 47.4 51.04C47.4 56.96 50.12 60.4 54.32 60.4C56.72 60.4 58.6 59.2 60 57.68L63.76 62.16C61.24 65.08 57.92 66.56 54.04 66.56ZM64.3597 66L73.5997 36.2H82.1597L91.3997 66H83.8797L80.1597 51.12C79.3597 48.16 78.5997 44.6 77.7997 41.56H77.6397C76.9197 44.68 76.1197 48.16 75.3597 51.12L71.6397 66H64.3597ZM70.6397 59.16V53.64H85.0397V59.16H70.6397ZM94.5259 66V36.2H105.446C111.806 36.2 117.086 38.4 117.086 45.6C117.086 52.6 111.806 55.52 105.446 55.52H101.686V66H94.5259ZM101.686 49.88H104.886C108.286 49.88 110.126 48.4 110.126 45.6C110.126 42.8 108.286 41.88 104.886 41.88H101.686V49.88ZM110.606 66L104.166 53.68L109.006 49L118.606 66H110.606ZM127.473 66V42.16H119.433V36.2H142.713V42.16H134.633V66H127.473Z" fill="black"/>
</svg>
