<svg width="10" height="10" viewBox="0 0 10 10" fill="none" xmlns="http://www.w3.org/2000/svg">
<path d="M1.25 4.73684C0.9 4.73684 0.604167 4.60965 0.3625 4.35526C0.120833 4.10088 0 3.78947 0 3.42105C0 3.05263 0.120833 2.74123 0.3625 2.48684C0.604167 2.23246 0.9 2.10526 1.25 2.10526C1.6 2.10526 1.89583 2.23246 2.1375 2.48684C2.37917 2.74123 2.5 3.05263 2.5 3.42105C2.5 3.78947 2.37917 4.10088 2.1375 4.35526C1.89583 4.60965 1.6 4.73684 1.25 4.73684ZM3.5 2.63158C3.15 2.63158 2.85417 2.50439 2.6125 2.25C2.37083 1.99561 2.25 1.68421 2.25 1.31579C2.25 0.947368 2.37083 0.635965 2.6125 0.381579C2.85417 0.127193 3.15 0 3.5 0C3.85 0 4.14583 0.127193 4.3875 0.381579C4.62917 0.635965 4.75 0.947368 4.75 1.31579C4.75 1.68421 4.62917 1.99561 4.3875 2.25C4.14583 2.50439 3.85 2.63158 3.5 2.63158ZM6.5 2.63158C6.15 2.63158 5.85417 2.50439 5.6125 2.25C5.37083 1.99561 5.25 1.68421 5.25 1.31579C5.25 0.947368 5.37083 0.635965 5.6125 0.381579C5.85417 0.127193 6.15 0 6.5 0C6.85 0 7.14583 0.127193 7.3875 0.381579C7.62917 0.635965 7.75 0.947368 7.75 1.31579C7.75 1.68421 7.62917 1.99561 7.3875 2.25C7.14583 2.50439 6.85 2.63158 6.5 2.63158ZM8.75 4.73684C8.4 4.73684 8.10417 4.60965 7.8625 4.35526C7.62083 4.10088 7.5 3.78947 7.5 3.42105C7.5 3.05263 7.62083 2.74123 7.8625 2.48684C8.10417 2.23246 8.4 2.10526 8.75 2.10526C9.1 2.10526 9.39583 2.23246 9.6375 2.48684C9.87917 2.74123 10 3.05263 10 3.42105C10 3.78947 9.87917 4.10088 9.6375 4.35526C9.39583 4.60965 9.1 4.73684 8.75 4.73684ZM2.325 10C1.95 10 1.63542 9.84868 1.38125 9.54605C1.12708 9.24342 1 8.88597 1 8.47368C1 8.01754 1.14792 7.61842 1.44375 7.27632C1.73958 6.93421 2.03333 6.59649 2.325 6.26316C2.56667 5.99123 2.775 5.69518 2.95 5.375C3.125 5.05482 3.33333 4.75439 3.575 4.47368C3.75833 4.24561 3.97083 4.05702 4.2125 3.90789C4.45417 3.75877 4.71667 3.68421 5 3.68421C5.28333 3.68421 5.54583 3.75439 5.7875 3.89474C6.02917 4.03509 6.24167 4.2193 6.425 4.44737C6.65833 4.72807 6.86458 5.0307 7.04375 5.35526C7.22292 5.67982 7.43333 5.98246 7.675 6.26316C7.96667 6.59649 8.26042 6.93421 8.55625 7.27632C8.85208 7.61842 9 8.01754 9 8.47368C9 8.88597 8.87292 9.24342 8.61875 9.54605C8.36458 9.84868 8.05 10 7.675 10C7.225 10 6.77917 9.96053 6.3375 9.88158C5.89583 9.80263 5.45 9.76316 5 9.76316C4.55 9.76316 4.10417 9.80263 3.6625 9.88158C3.22083 9.96053 2.775 10 2.325 10Z" fill="#A8C4D9"/>
</svg>
