<svg width="20" height="20" viewBox="0 0 20 20" fill="none" xmlns="http://www.w3.org/2000/svg">
<rect width="20" height="20" rx="10" fill="#EEEEEE"/>
<path d="M13.8 14.5L10.65 11.35C10.4 11.55 10.1125 11.7083 9.7875 11.825C9.4625 11.9417 9.11667 12 8.75 12C7.84167 12 7.07292 11.6854 6.44375 11.0563C5.81458 10.4271 5.5 9.65833 5.5 8.75C5.5 7.84167 5.81458 7.07292 6.44375 6.44375C7.07292 5.81458 7.84167 5.5 8.75 5.5C9.65833 5.5 10.4271 5.81458 11.0563 6.44375C11.6854 7.07292 12 7.84167 12 8.75C12 9.11667 11.9417 9.4625 11.825 9.7875C11.7083 10.1125 11.55 10.4 11.35 10.65L14.5 13.8L13.8 14.5ZM8.75 11C9.375 11 9.90625 10.7812 10.3438 10.3438C10.7812 9.90625 11 9.375 11 8.75C11 8.125 10.7812 7.59375 10.3438 7.15625C9.90625 6.71875 9.375 6.5 8.75 6.5C8.125 6.5 7.59375 6.71875 7.15625 7.15625C6.71875 7.59375 6.5 8.125 6.5 8.75C6.5 9.375 6.71875 9.90625 7.15625 10.3438C7.59375 10.7812 8.125 11 8.75 11Z" fill="#757575"/>
</svg>
