<svg width="35" height="35" viewBox="0 0 35 35" fill="none" xmlns="http://www.w3.org/2000/svg">
<path d="M17.5002 17.4999C15.8798 17.4999 14.5025 16.9328 13.3682 15.7985C12.234 14.6643 11.6668 13.287 11.6668 11.6666C11.6668 10.0462 12.234 8.6689 13.3682 7.53464C14.5025 6.40038 15.8798 5.83325 17.5002 5.83325C19.1205 5.83325 20.4978 6.40038 21.6321 7.53464C22.7664 8.6689 23.3335 10.0462 23.3335 11.6666C23.3335 13.287 22.7664 14.6643 21.6321 15.7985C20.4978 16.9328 19.1205 17.4999 17.5002 17.4999ZM5.8335 29.1666V25.2777C5.8335 24.6566 6.00228 24.0692 6.33986 23.5155C6.67744 22.9619 7.1433 22.4961 7.73743 22.118C9.22277 21.2538 10.793 20.5921 12.4483 20.133C14.1035 19.6739 15.7846 19.4444 17.4917 19.4444C19.1987 19.4444 20.8827 19.6739 22.5436 20.133C24.2044 20.5921 25.7776 21.2538 27.2629 22.118C27.857 22.4691 28.3229 22.9282 28.6605 23.4953C28.998 24.0624 29.1668 24.6566 29.1668 25.2777V29.1666H5.8335ZM8.75016 26.2499H26.2502V25.2777C26.2502 25.1378 26.2092 25.0107 26.1274 24.8965C26.0459 24.782 25.9382 24.693 25.8046 24.6295C24.5623 23.8734 23.239 23.3062 21.8347 22.9282C20.4303 22.5501 18.9855 22.361 17.5002 22.361C16.0148 22.361 14.57 22.5501 13.1657 22.9282C11.7614 23.3062 10.438 23.8734 9.19576 24.6295C9.06073 24.7376 8.95271 24.8418 8.87169 24.9423C8.79067 25.043 8.75016 25.1548 8.75016 25.2777V26.2499ZM17.5087 14.5833C18.3132 14.5833 18.999 14.2969 19.5661 13.724C20.1333 13.1512 20.4168 12.4626 20.4168 11.6581C20.4168 10.8536 20.1304 10.1677 19.5576 9.60061C18.9848 9.03348 18.2962 8.74992 17.4917 8.74992C16.6871 8.74992 16.0013 9.03632 15.4342 9.60912C14.8671 10.1819 14.5835 10.8706 14.5835 11.6751C14.5835 12.4796 14.8699 13.1654 15.4427 13.7326C16.0155 14.2997 16.7042 14.5833 17.5087 14.5833Z" fill="#075985"/>
</svg>
