<svg width="16" height="17" viewBox="0 0 16 17" fill="none" xmlns="http://www.w3.org/2000/svg">
<path d="M8 8.85857C6.9 8.85857 5.95833 8.46881 5.175 7.6893C4.39167 6.90978 4 5.97271 4 4.87808C4 3.78344 4.39167 2.84637 5.175 2.06685C5.95833 1.28734 6.9 0.897583 8 0.897583C9.1 0.897583 10.0417 1.28734 10.825 2.06685C11.6083 2.84637 12 3.78344 12 4.87808C12 5.97271 11.6083 6.90978 10.825 7.6893C10.0417 8.46881 9.1 8.85857 8 8.85857ZM0 16.8196V14.0332C0 13.4693 0.145833 12.951 0.4375 12.4783C0.729167 12.0056 1.11667 11.6449 1.6 11.3961C2.63333 10.882 3.68333 10.4964 4.75 10.2393C5.81667 9.98223 6.9 9.85369 8 9.85369C9.1 9.85369 10.1833 9.98223 11.25 10.2393C12.3167 10.4964 13.3667 10.882 14.4 11.3961C14.8833 11.6449 15.2708 12.0056 15.5625 12.4783C15.8542 12.951 16 13.4693 16 14.0332V16.8196H0ZM2 14.8293H14V14.0332C14 13.8508 13.9542 13.6849 13.8625 13.5356C13.7708 13.3864 13.65 13.2703 13.5 13.1874C12.6 12.7395 11.6917 12.4037 10.775 12.1798C9.85833 11.9559 8.93333 11.8439 8 11.8439C7.06667 11.8439 6.14167 11.9559 5.225 12.1798C4.30833 12.4037 3.4 12.7395 2.5 13.1874C2.35 13.2703 2.22917 13.3864 2.1375 13.5356C2.04583 13.6849 2 13.8508 2 14.0332V14.8293ZM8 6.86832C8.55 6.86832 9.02083 6.67344 9.4125 6.28369C9.80417 5.89393 10 5.42539 10 4.87808C10 4.33076 9.80417 3.86222 9.4125 3.47246C9.02083 3.08271 8.55 2.88783 8 2.88783C7.45 2.88783 6.97917 3.08271 6.5875 3.47246C6.19583 3.86222 6 4.33076 6 4.87808C6 5.42539 6.19583 5.89393 6.5875 6.28369C6.97917 6.67344 7.45 6.86832 8 6.86832Z" fill="#075985"/>
</svg>
